<svg xmlns="http://www.w3.org/2000/svg" width="31" height="31" viewBox="0 0 31 31">
    <g transform="translate(14755.011 1655.011)">
        <circle cx="15.5" cy="15.5" r="15.5" fill="#f8f8f8" transform="translate(-14755.011 -1655.011)"/>
        <g fill="#1f2459">
            <path d="M469.72 411.089c-.157 0-.304-.061-.415-.172-.111-.111-.172-.258-.172-.415 0-.157.06-.304.172-.415l5.123-5.123.354-.354-.354-.353-5.122-5.123c-.229-.229-.229-.6 0-.83.11-.11.258-.17.415-.17.157 0 .304.06.415.171l5.122 5.122.354.353.353-.353 5.123-5.122c.11-.111.258-.172.414-.172.157 0 .304.06.415.171.229.23.229.602 0 .83l-5.122 5.123-.354.353.354.354 5.124 5.124c.228.228.228.6 0 .829-.111.11-.259.172-.415.172-.157 0-.304-.061-.415-.172l-5.124-5.123-.353-.354-.354.354-5.123 5.123c-.111.11-.258.172-.415.172z" transform="translate(-15214.806 -2043.805)"/>
            <path d="M469.72 410.589c.036 0 .055-.02.061-.026l5.124-5.123.707-.707.707.707 5.123 5.123c.006.007.026.026.062.026.035 0 .055-.02.061-.026.033-.033.033-.089 0-.122l-5.124-5.124-.707-.707.707-.707 5.122-5.122c.035-.034.035-.088 0-.123-.017-.017-.037-.025-.06-.025-.024 0-.045.008-.062.025l-5.122 5.122-.707.708-.708-.708-5.12-5.12c-.018-.018-.039-.027-.063-.027s-.045.009-.062.025c-.033.034-.033.089 0 .122l5.123 5.123.707.707-.707.707-5.124 5.123c-.017.017-.025.038-.025.062 0 .036.019.054.025.061.007.007.026.026.062.026m0 1c-.278 0-.556-.106-.769-.319-.424-.424-.424-1.112 0-1.537l5.124-5.123-5.123-5.122c-.424-.424-.424-1.113 0-1.537.213-.212.49-.318.769-.318.278 0 .556.106.768.318l5.123 5.122 5.122-5.122c.212-.212.49-.318.768-.318s.556.106.768.318c.425.425.425 1.113 0 1.537l-5.122 5.122 5.124 5.124c.424.424.424 1.112 0 1.536-.212.213-.49.319-.768.319s-.557-.106-.769-.319l-5.123-5.123-5.123 5.123c-.213.213-.491.319-.77.319z" transform="translate(-15214.806 -2043.805)"/>
        </g>
    </g>
</svg>
